# xmcd
#
# Track frame offsets:
#	150
#	13027
#	25760
#	37429
#	53155
#	69736
#	79347
#	91177
#	96970
#	108653
#	119408
#	130274
#	141899
#
# Disc length: 2042 seconds
#
# Revision: 0
# Processed by: cddbd v1.4PL0 Copyright (c) Steve Scherf et al.
# Submitted via: dBpowerAMP V4.0
#
DISCID=ba07f80d
DTITLE=Charlie Pride - Country Pride
DYEAR=1900
DGENRE=
TTITLE0=Crystal Chandeliers
TTITLE1=Help Me Make It Through The Night
TTITLE2=Louisiana Man
TTITLE3=Let Me Live In The Light Of His Love
TTITLE4=Me And Bobby McGee
TTITLE5=Kiss An Angel Good Morning
TTITLE6=There Goes My Everything
TTITLE7=Lovesick Blues
TTITLE8=My Eyes Can Only See As Far As You
TTITLE9=Mississippi Cotton Picking Delta Town
TTITLE10=Oklahoma Morning
TTITLE11=Shutters And Boards
TTITLE12=The Happiness Of Having You
EXTD=
EXTT0=
EXTT1=
EXTT2=
EXTT3=
EXTT4=
EXTT5=
EXTT6=
EXTT7=
EXTT8=
EXTT9=
EXTT10=
EXTT11=
EXTT12=
PLAYORDER=
